<svg width="212" height="45" viewBox="0 0 212 45" fill="none" xmlns="http://www.w3.org/2000/svg">
<path d="M11.6667 37H28.3333" stroke="#2F6B3B" stroke-width="2" stroke-linecap="round" stroke-linejoin="round"/>
<path d="M20 37C23.9782 37 27.7936 35.4196 30.6066 32.6066C33.4196 29.7936 35 25.9782 35 22H5C5 25.9782 6.58035 29.7936 9.3934 32.6066C12.2064 35.4196 16.0218 37 20 37Z" stroke="#2F6B3B" stroke-width="2" stroke-linecap="round" stroke-linejoin="round"/>
<path d="M18.9667 22C17.9573 22.0094 16.9816 21.6368 16.2355 20.957C15.4893 20.2772 15.0277 19.3403 14.9434 18.3344C14.859 17.3285 15.1581 16.3279 15.7807 15.5333C16.4032 14.7387 17.3031 14.2088 18.3 14.05C18.1404 13.3437 18.1755 12.6074 18.4016 11.9195C18.6277 11.2316 19.0362 10.6179 19.5837 10.144C20.1312 9.67011 20.797 9.3537 21.5102 9.22854C22.2234 9.10338 22.9572 9.17416 23.6333 9.43334C23.9294 8.96728 24.3187 8.56755 24.7768 8.25934C25.235 7.95112 25.7519 7.74108 26.2952 7.64245C26.8384 7.54382 27.3962 7.55872 27.9335 7.68623C28.4707 7.81374 28.9757 8.05109 29.4167 8.38334C30.1859 7.77871 31.1502 7.47701 32.1269 7.53533C33.1036 7.59364 34.025 8.00793 34.7169 8.69979C35.4087 9.39166 35.823 10.3131 35.8813 11.2898C35.9397 12.2665 35.638 13.2307 35.0333 14C35.4097 14.4999 35.6635 15.0811 35.7744 15.6969C35.8853 16.3127 35.8502 16.9459 35.6718 17.5457C35.4935 18.1454 35.177 18.695 34.7477 19.1502C34.3184 19.6054 33.7883 19.9536 33.2 20.1667C33.3521 20.7666 33.3692 21.3927 33.25 22" stroke="#2F6B3B" stroke-width="2" stroke-linecap="round" stroke-linejoin="round"/>
<path d="M21.6667 22L28.3333 15.3333" stroke="#2F6B3B" stroke-width="2" stroke-linecap="round" stroke-linejoin="round"/>
<path d="M18.1667 14.0833C17.2525 13.1088 16.0659 12.4322 14.7616 12.1419C13.4573 11.8515 12.0958 11.9608 10.8546 12.4555C9.61328 12.9502 8.54984 13.8074 7.80283 14.9153C7.05582 16.0232 6.65989 17.3305 6.66667 18.6667C6.66667 19.8833 7 21.0167 7.56667 22" stroke="#2F6B3B" stroke-width="2" stroke-linecap="round" stroke-linejoin="round"/>
<path d="M60.18 12.09V14.31H54.48V33H51.75V14.31H46.02V12.09H60.18ZM85.4405 16.56L80.3105 33H77.4905L73.5305 19.95L69.5705 33H66.7505L61.5905 16.56H64.3805L68.1605 30.36L72.2405 16.56H75.0305L79.0205 30.39L82.7405 16.56H85.4405ZM95.3198 33.27C93.7798 33.27 92.3798 32.92 91.1198 32.22C89.8798 31.52 88.8998 30.53 88.1798 29.25C87.4798 27.95 87.1298 26.45 87.1298 24.75C87.1298 23.07 87.4898 21.59 88.2098 20.31C88.9498 19.01 89.9498 18.02 91.2098 17.34C92.4698 16.64 93.8798 16.29 95.4398 16.29C96.9998 16.29 98.4098 16.64 99.6698 17.34C100.93 18.02 101.92 19 102.64 20.28C103.38 21.56 103.75 23.05 103.75 24.75C103.75 26.45 103.37 27.95 102.61 29.25C101.87 30.53 100.86 31.52 99.5798 32.22C98.2998 32.92 96.8798 33.27 95.3198 33.27ZM95.3198 30.87C96.2998 30.87 97.2198 30.64 98.0798 30.18C98.9398 29.72 99.6298 29.03 100.15 28.11C100.69 27.19 100.96 26.07 100.96 24.75C100.96 23.43 100.7 22.31 100.18 21.39C99.6598 20.47 98.9798 19.79 98.1398 19.35C97.2998 18.89 96.3898 18.66 95.4098 18.66C94.4098 18.66 93.4898 18.89 92.6498 19.35C91.8298 19.79 91.1698 20.47 90.6698 21.39C90.1698 22.31 89.9198 23.43 89.9198 24.75C89.9198 26.09 90.1598 27.22 90.6398 28.14C91.1398 29.06 91.7998 29.75 92.6198 30.21C93.4398 30.65 94.3398 30.87 95.3198 30.87ZM108.809 13.89C108.289 13.89 107.849 13.71 107.489 13.35C107.149 12.99 106.979 12.55 106.979 12.03C106.979 11.51 107.149 11.07 107.489 10.71C107.849 10.35 108.289 10.17 108.809 10.17C109.329 10.17 109.759 10.35 110.099 10.71C110.459 11.07 110.639 11.51 110.639 12.03C110.639 12.55 110.459 12.99 110.099 13.35C109.759 13.71 109.329 13.89 108.809 13.89ZM110.159 36.57C110.159 38.03 109.789 39.1 109.049 39.78C108.309 40.46 107.229 40.8 105.809 40.8H104.219V38.49H105.359C106.119 38.49 106.649 38.34 106.949 38.04C107.269 37.74 107.429 37.23 107.429 36.51V16.56H110.159V36.57ZM113.761 24.72C113.761 23.04 114.101 21.57 114.781 20.31C115.461 19.03 116.391 18.04 117.571 17.34C118.771 16.64 120.101 16.29 121.561 16.29C123.001 16.29 124.251 16.6 125.311 17.22C126.371 17.84 127.161 18.62 127.681 19.56V16.56H130.441V33H127.681V29.94C127.141 30.9 126.331 31.7 125.251 32.34C124.191 32.96 122.951 33.27 121.531 33.27C120.071 33.27 118.751 32.91 117.571 32.19C116.391 31.47 115.461 30.46 114.781 29.16C114.101 27.86 113.761 26.38 113.761 24.72ZM127.681 24.75C127.681 23.51 127.431 22.43 126.931 21.51C126.431 20.59 125.751 19.89 124.891 19.41C124.051 18.91 123.121 18.66 122.101 18.66C121.081 18.66 120.151 18.9 119.311 19.38C118.471 19.86 117.801 20.56 117.301 21.48C116.801 22.4 116.551 23.48 116.551 24.72C116.551 25.98 116.801 27.08 117.301 28.02C117.801 28.94 118.471 29.65 119.311 30.15C120.151 30.63 121.081 30.87 122.101 30.87C123.121 30.87 124.051 30.63 124.891 30.15C125.751 29.65 126.431 28.94 126.931 28.02C127.431 27.08 127.681 25.99 127.681 24.75Z" fill="#2F6B3B"/>
<path d="M141.564 12.09C143.844 12.09 145.814 12.52 147.474 13.38C149.154 14.22 150.434 15.43 151.314 17.01C152.214 18.59 152.664 20.45 152.664 22.59C152.664 24.73 152.214 26.59 151.314 28.17C150.434 29.73 149.154 30.93 147.474 31.77C145.814 32.59 143.844 33 141.564 33H135.054V12.09H141.564ZM141.564 30.75C144.264 30.75 146.324 30.04 147.744 28.62C149.164 27.18 149.874 25.17 149.874 22.59C149.874 19.99 149.154 17.96 147.714 16.5C146.294 15.04 144.244 14.31 141.564 14.31H137.784V30.75H141.564ZM157.675 13.89C157.155 13.89 156.715 13.71 156.355 13.35C155.995 12.99 155.815 12.55 155.815 12.03C155.815 11.51 155.995 11.07 156.355 10.71C156.715 10.35 157.155 10.17 157.675 10.17C158.175 10.17 158.595 10.35 158.935 10.71C159.295 11.07 159.475 11.51 159.475 12.03C159.475 12.55 159.295 12.99 158.935 13.35C158.595 13.71 158.175 13.89 157.675 13.89ZM158.995 16.56V33H156.265V16.56H158.995ZM178.648 24.15C178.648 24.67 178.618 25.22 178.558 25.8H165.418C165.518 27.42 166.068 28.69 167.068 29.61C168.088 30.51 169.318 30.96 170.758 30.96C171.938 30.96 172.918 30.69 173.698 30.15C174.498 29.59 175.058 28.85 175.378 27.93H178.318C177.878 29.51 176.998 30.8 175.678 31.8C174.358 32.78 172.718 33.27 170.758 33.27C169.198 33.27 167.798 32.92 166.558 32.22C165.338 31.52 164.378 30.53 163.678 29.25C162.978 27.95 162.628 26.45 162.628 24.75C162.628 23.05 162.968 21.56 163.648 20.28C164.328 19 165.278 18.02 166.498 17.34C167.738 16.64 169.158 16.29 170.758 16.29C172.318 16.29 173.698 16.63 174.898 17.31C176.098 17.99 177.018 18.93 177.658 20.13C178.318 21.31 178.648 22.65 178.648 24.15ZM175.828 23.58C175.828 22.54 175.598 21.65 175.138 20.91C174.678 20.15 174.048 19.58 173.248 19.2C172.468 18.8 171.598 18.6 170.638 18.6C169.258 18.6 168.078 19.04 167.098 19.92C166.138 20.8 165.588 22.02 165.448 23.58H175.828ZM185.581 18.81V28.5C185.581 29.3 185.751 29.87 186.091 30.21C186.431 30.53 187.021 30.69 187.861 30.69H189.871V33H187.411C185.891 33 184.751 32.65 183.991 31.95C183.231 31.25 182.851 30.1 182.851 28.5V18.81H180.721V16.56H182.851V12.42H185.581V16.56H189.871V18.81H185.581ZM192.159 24.72C192.159 23.04 192.499 21.57 193.179 20.31C193.859 19.03 194.789 18.04 195.969 17.34C197.169 16.64 198.499 16.29 199.959 16.29C201.399 16.29 202.649 16.6 203.709 17.22C204.769 17.84 205.559 18.62 206.079 19.56V16.56H208.839V33H206.079V29.94C205.539 30.9 204.729 31.7 203.649 32.34C202.589 32.96 201.349 33.27 199.929 33.27C198.469 33.27 197.149 32.91 195.969 32.19C194.789 31.47 193.859 30.46 193.179 29.16C192.499 27.86 192.159 26.38 192.159 24.72ZM206.079 24.75C206.079 23.51 205.829 22.43 205.329 21.51C204.829 20.59 204.149 19.89 203.289 19.41C202.449 18.91 201.519 18.66 200.499 18.66C199.479 18.66 198.549 18.9 197.709 19.38C196.869 19.86 196.199 20.56 195.699 21.48C195.199 22.4 194.949 23.48 194.949 24.72C194.949 25.98 195.199 27.08 195.699 28.02C196.199 28.94 196.869 29.65 197.709 30.15C198.549 30.63 199.479 30.87 200.499 30.87C201.519 30.87 202.449 30.63 203.289 30.15C204.149 29.65 204.829 28.94 205.329 28.02C205.829 27.08 206.079 25.99 206.079 24.75Z" fill="#88CF7A"/>
</svg>
